# xmcd
#
# Track frame offsets: 
#        150
#        9918
#        19959
#        33337
#        42971
#        54619
#        64154
#        75565
#        87776
#        98782
#        112743
#        126032
#        137833
#        149551
#        162681
#        173534
#        187650
#        206463
#        220559
#        236686
#        250228
#        259993
#        271693
#        282328
#        293297
#        304094
#        327423
#        338394
#
# Disc length: 4665 seconds
#
# Revision: 1
# Processed by: cddbd v1.5.2PL0 Copyright (c) Steve Scherf et al.
# Submitted via: ExactAudioCopyFreeDBPlugin 1.0
#
DISCID=7e12371c
DTITLE=B.B. King - Ladies and Gentlemen.... Mr. B.B. King [CD 03) - How 
DTITLE=Blue Can You Get (1962-1966)
DYEAR=2012
DGENRE=Blues
TTITLE0=You Ask Me
TTITLE1=I'm Gonna Sit In 'Til You Give In
TTITLE2=Blues At Midnight
TTITLE3=My Baby's Coming Home
TTITLE4=Chains Of Love
TTITLE5=Sneaking Around
TTITLE6=Slowly Losing My Mind
TTITLE7=How Blue Can You Get?
TTITLE8=Whole Lotta Lovin'
TTITLE9=I Wonder Why
TTITLE10=Please Accept My Love
TTITLE11=Help The Poor
TTITLE12=Never Trust A Woman
TTITLE13=Worryin' Blues
TTITLE14=Stop Leading Me On
TTITLE15=Everyday I Have The Blues [live]
TTITLE16=Sweet Little Angel [live]
TTITLE17=It's My Own Fault [live]
TTITLE18=How Blue Can You Get [live]
TTITLE19=Please Love Me [live]
TTITLE20=Tired Of Your Jive
TTITLE21=All Over Again
TTITLE22=I'd Rather Drink Muddy Water
TTITLE23=Cherry Red
TTITLE24=You're Still A Square
TTITLE25=Don't Answer The Door, Parts 1 and 2
TTITLE26=Waitin' On You
TTITLE27=Night Life
EXTD=
EXTT0=
EXTT1=
EXTT2=
EXTT3=
EXTT4=
EXTT5=
EXTT6=
EXTT7=
EXTT8=
EXTT9=
EXTT10=
EXTT11=
EXTT12=
EXTT13=
EXTT14=
EXTT15=
EXTT16=
EXTT17=
EXTT18=
EXTT19=
EXTT20=
EXTT21=
EXTT22=
EXTT23=
EXTT24=
EXTT25=
EXTT26=
EXTT27=
PLAYORDER=
